<svg xmlns="http://www.w3.org/2000/svg" width="1600" height="1000" viewBox="0 0 1600 1000">
  <defs>
    <linearGradient id="bg" x1="0" y1="0" x2="1" y2="1">
      <stop offset="0" stop-color="#080808"/><stop offset="0.55" stop-color="#11100e"/><stop offset="1" stop-color="#080808"/>
    </linearGradient>
    <radialGradient id="glow" cx="0.2" cy="0.25" r="0.75">
      <stop offset="0" stop-color="#b78b48" stop-opacity=".2"/><stop offset="1" stop-color="#b78b48" stop-opacity="0"/>
    </radialGradient>
    <style>
      .sans{font-family:Arial,Helvetica,sans-serif}.gold{fill:#d6ad6b}.muted{fill:#aaa39a}.white{fill:#f4f0e8}
      .line{stroke:#d6ad6b;stroke-width:3;fill:none;stroke-linecap:round;stroke-linejoin:round}
      .grid{stroke:#3a352f;stroke-width:2}.cell{font:500 32px Arial,Helvetica,sans-serif;fill:#f4f0e8}
    </style>
  </defs>
  <rect width="1600" height="1000" fill="url(#bg)"/><rect width="1600" height="1000" fill="url(#glow)"/>
  <text x="90" y="100" class="sans gold" font-size="30" letter-spacing="13">VEYRATH</text>
  <text x="90" y="178" class="sans white" font-size="64" font-weight="700">OVERSIZED T-SHIRT</text>
  <text x="92" y="226" class="sans muted" font-size="24" letter-spacing="7">SIZE GUIDE / INCHES</text>

  <g transform="translate(115 315)">
    <path class="line" d="M155 30 L225 5 L295 30 L385 78 L345 180 L300 158 L300 520 L80 520 L80 158 L35 180 L-5 78 L85 30 Z"/>
    <path class="line" d="M155 30 Q190 72 225 30" opacity=".7"/>
    <path class="line" d="M80 205 H300"/>
    <path class="line" d="M88 192 L80 205 L88 218 M292 192 L300 205 L292 218"/>
    <text x="190" y="185" text-anchor="middle" class="sans white" font-size="24">CHEST</text>
    <path class="line" d="M320 33 V520"/>
    <path class="line" d="M307 45 L320 33 L333 45 M307 508 L320 520 L333 508"/>
    <text transform="translate(358 282) rotate(90)" text-anchor="middle" class="sans white" font-size="24">LENGTH</text>
  </g>

  <g transform="translate(580 310)">
    <rect width="930" height="400" rx="20" fill="#11110f" stroke="#3a352f" stroke-width="2"/>
    <rect width="930" height="96" rx="20" fill="#1b1916"/><rect y="76" width="930" height="20" fill="#1b1916"/>
    <g class="grid">
      <path d="M220 0 V400 M338 0 V400 M456 0 V400 M574 0 V400 M692 0 V400 M810 0 V400"/>
      <path d="M0 96 H930 M0 248 H930"/>
    </g>
    <g class="sans" text-anchor="middle">
      <text x="110" y="60" class="gold" font-size="26" font-weight="700">SIZE</text>
      <text x="279" y="60" class="gold" font-size="28">XS</text><text x="397" y="60" class="gold" font-size="28">S</text>
      <text x="515" y="60" class="gold" font-size="28">M</text><text x="633" y="60" class="gold" font-size="28">L</text>
      <text x="751" y="60" class="gold" font-size="28">XL</text><text x="870" y="60" class="gold" font-size="28">2XL</text>
      <text x="110" y="187" class="muted" font-size="26">Chest</text>
      <text x="279" y="187" class="cell">40</text><text x="397" y="187" class="cell">42</text><text x="515" y="187" class="cell">44</text>
      <text x="633" y="187" class="cell">46</text><text x="751" y="187" class="cell">48</text><text x="870" y="187" class="cell">50</text>
      <text x="110" y="340" class="muted" font-size="26">Length</text>
      <text x="279" y="340" class="cell">27</text><text x="397" y="340" class="cell">28</text><text x="515" y="340" class="cell">29</text>
      <text x="633" y="340" class="cell">30</text><text x="751" y="340" class="cell">31</text><text x="870" y="340" class="cell">32</text>
    </g>
  </g>
  <text x="580" y="770" class="sans white" font-size="25">HOW TO MEASURE</text>
  <text x="580" y="814" class="sans muted" font-size="22">Chest: measure around the garment at the underarm line.</text>
  <text x="580" y="850" class="sans muted" font-size="22">Length: measure from the highest shoulder point to the hem.</text>
  <text x="580" y="895" class="sans gold" font-size="20">OVERSIZED FIT · GARMENT TOLERANCE ±0.5 IN · SIZE UP FOR A LOOSER DRAPE</text>
  <text x="90" y="945" class="sans muted" font-size="17" letter-spacing="3">AFTER DARK / BUILT DIFFERENT</text>
</svg>
